<svg width="14" height="14" xmlns="http://www.w3.org/2000/svg">
 <!-- Generator: Sketch 52.2 (67145) - http://www.bohemiancoding.com/sketch -->

 <title>Shape</title>
 <desc>Created with Sketch.</desc>
 <g>
  <title>background</title>
  <rect fill="none" id="canvas_background" height="402" width="582" y="-1" x="-1"/>
 </g>
 <g>
  <title>Layer 1</title>
  <g fill-rule="evenodd" fill="none" id="Desktop">
   <g fill-rule="nonzero" fill="#657786" id="lista">
    <g id="Group">
     <g id="Group-3">
      <g id="likes">
       <g id="icon-like">
        <path fill="#db116f" id="Shape" d="m7.00104,14l-0.00975,0c-1.79937,-0.03553 -6.99129,-5.01999 -6.99129,-9.74093c0,-2.26795 1.75897,-4.25907 3.76385,-4.25907c1.59526,0 2.66806,1.1695 3.2365,2.02073c0.56635,-0.84975 1.63915,-2.02073 3.23511,-2.02073c2.00627,0 3.76454,1.99112 3.76454,4.25981c0,4.71872 -5.19262,9.70392 -6.99199,9.73797l-0.00697,0l0,0.00222zm-3.2365,-12.88897c-1.44897,0 -2.71891,1.4715 -2.71891,3.14952c0,4.2487 4.90073,8.58327 5.95611,8.62916c1.05887,-0.04589 5.95611,-4.37972 5.95611,-8.62916c0,-1.67802 -1.26924,-3.14952 -2.71821,-3.14952c-1.76106,0 -2.74469,2.1732 -2.75305,2.19467c-0.16022,0.41599 -0.80529,0.41599 -0.96621,0c-0.01045,-0.02221 -0.99339,-2.19467 -2.75514,-2.19467l-0.0007,0z"/>
       </g>
      </g>
     </g>
    </g>
   </g>
  </g>
  <path id="svg_1" d="m7.072113,4.24089c2.396466,-6.644817 11.785896,0 0,8.543336c-11.785896,-8.543336 -2.396466,-15.188153 0,-8.543336z" stroke-width="1.5" stroke="#db116f" fill="#db116f"/>
 </g>
</svg>